<?xml version="1.0" standalone="no"?>
<!DOCTYPE svg PUBLIC "-//W3C//DTD SVG 20010904//EN"
 "http://www.w3.org/TR/2001/REC-SVG-20010904/DTD/svg10.dtd">
<svg version="1.0" xmlns="http://www.w3.org/2000/svg"
 width="300.000000pt" height="335.000000pt" viewBox="0 0 300.000000 335.000000"
 preserveAspectRatio="xMidYMid meet">
<metadata>
Created by potrace 1.10, written by Peter Selinger 2001-2011
</metadata>
<g transform="translate(0.000000,335.000000) scale(0.100000,-0.100000)"
fill="#000000" stroke="none">
<path d="M1548 3239 c-2 -6 -33 -12 -68 -14 -79 -5 -94 -8 -111 -21 -8 -6 -30
-11 -49 -13 -19 -2 -46 -9 -60 -15 -14 -7 -63 -26 -110 -41 -47 -16 -98 -34
-115 -41 -16 -6 -39 -15 -51 -18 -11 -4 -44 -31 -71 -60 -28 -30 -59 -57 -70
-60 -10 -3 -24 -17 -30 -31 -7 -14 -18 -36 -25 -49 -7 -12 -21 -27 -33 -32
-16 -7 -19 -16 -17 -52 3 -28 -2 -52 -13 -68 -10 -16 -16 -42 -14 -72 1 -26
-1 -63 -6 -82 -10 -45 -9 -128 3 -271 8 -100 14 -127 41 -183 32 -65 32 -66
30 -203 -3 -135 2 -222 22 -333 5 -30 14 -91 19 -135 20 -156 29 -188 102
-342 19 -42 19 -43 0 -95 -18 -48 -23 -53 -68 -69 -89 -30 -251 -108 -334
-159 -38 -25 -156 -73 -421 -174 -77 -29 -107 -51 -93 -66 9 -9 21 -7 52 9 23
12 50 21 62 21 11 0 20 5 20 10 0 6 11 10 24 10 14 0 28 5 31 10 3 6 16 10 29
10 12 0 26 4 31 8 6 5 36 17 68 27 31 11 57 22 57 26 0 4 12 10 27 14 16 3 69
30 118 59 83 47 269 135 323 151 26 8 26 5 6 -60 -23 -71 -20 -258 5 -356 21
-85 28 -125 37 -229 3 -41 10 -82 15 -90 6 -9 7 9 4 50 -11 126 -16 164 -37
249 -31 127 -31 314 0 396 12 33 31 72 42 87 11 15 20 40 20 55 0 42 20 7 20
-37 1 -47 23 -138 45 -180 10 -19 37 -63 61 -97 24 -34 44 -67 44 -73 0 -19
94 -136 119 -148 l25 -12 -26 28 c-28 30 -68 87 -68 96 0 3 25 -21 55 -54 31
-34 53 -65 50 -70 -3 -5 13 -21 35 -36 22 -15 38 -29 35 -32 -3 -3 -26 9 -51
27 -58 41 -66 37 -10 -6 47 -36 84 -54 72 -35 -25 40 94 -31 172 -103 39 -37
72 -63 72 -58 0 9 -71 82 -110 113 l-25 19 30 1 c38 1 157 28 130 29 -11 0
-47 -4 -80 -9 -81 -14 -124 -5 -193 40 -42 27 -61 45 -64 65 -3 15 -1 28 6 30
6 2 62 6 125 9 136 7 213 24 341 73 86 33 102 43 171 112 60 60 80 87 94 129
18 55 24 160 11 200 -13 38 10 24 35 -22 13 -25 26 -43 31 -40 13 8 -13 64
-40 85 -24 19 -25 21 -9 30 9 6 17 17 17 24 0 8 4 15 9 15 5 0 11 13 14 30 6
26 9 29 29 21 13 -4 24 -13 24 -20 3 -24 5 -25 14 -11 8 13 14 10 35 -15 14
-16 40 -51 56 -78 17 -26 37 -47 44 -47 8 0 29 -30 47 -67 38 -78 48 -172 28
-262 -14 -61 -158 -472 -208 -588 -20 -50 -26 -73 -17 -73 12 0 34 54 118 290
140 394 158 482 117 590 -12 33 -20 63 -18 66 3 2 18 -2 34 -10 44 -22 135
-56 151 -56 8 0 29 -6 46 -14 18 -8 57 -23 87 -34 30 -12 74 -30 97 -41 23
-12 46 -21 51 -21 5 0 15 -7 22 -15 7 -8 16 -13 20 -10 5 3 15 -1 23 -9 8 -8
17 -13 19 -10 10 10 67 -18 62 -31 -4 -9 1 -13 13 -11 11 2 18 11 18 25 0 19
-14 28 -84 57 -45 18 -88 37 -95 42 -11 8 -104 44 -351 136 -66 25 -134 50
-151 57 -21 8 -37 26 -52 59 -19 41 -84 115 -134 152 -16 12 -16 17 3 83 48
173 72 361 71 574 0 191 0 194 23 217 13 13 35 24 48 24 14 0 30 7 37 15 24
29 79 6 68 -27 -3 -7 3 -31 13 -53 25 -54 24 -102 -6 -199 -24 -80 -90 -186
-156 -253 -21 -22 -21 -23 -2 -23 24 0 48 27 95 105 51 87 63 111 91 195 23
69 24 80 14 140 -7 36 -15 70 -18 75 -3 6 -9 22 -13 37 -11 46 -40 53 -96 24
-28 -14 -51 -26 -54 -26 -2 0 5 18 16 40 15 30 21 67 24 146 2 58 6 109 8 113
3 4 0 52 -5 107 -5 54 -11 120 -13 145 -2 25 -11 61 -20 80 -8 19 -18 52 -22
74 -3 22 -16 49 -27 60 -12 12 -47 48 -77 80 -30 33 -84 77 -120 99 -98 58
-244 126 -271 126 -13 0 -33 7 -43 15 -11 8 -36 15 -56 15 -20 0 -45 7 -56 15
-23 17 -31 18 -36 4z m-78 -54 c0 -17 26 -20 35 -4 4 5 12 8 18 6 7 -2 19 -1
28 4 11 6 21 4 29 -6 6 -7 18 -11 26 -8 7 3 17 -2 20 -11 3 -9 10 -13 16 -10
5 3 7 13 3 22 -3 10 7 4 24 -12 26 -25 31 -27 31 -12 0 14 3 16 13 7 8 -6 17
-8 20 -4 4 3 7 1 7 -6 0 -8 6 -11 16 -7 10 4 23 -1 33 -11 9 -10 25 -20 36
-21 11 -2 23 -9 27 -15 4 -7 8 -7 8 -2 0 6 5 2 11 -8 7 -12 17 -16 30 -12 12
4 27 -2 43 -18 14 -14 27 -22 30 -19 3 3 6 -3 6 -14 0 -16 2 -17 10 -4 9 13
12 13 24 -2 7 -10 18 -18 24 -18 13 0 24 -29 15 -43 -4 -8 -1 -7 9 1 14 11 18
8 29 -18 15 -32 24 -37 32 -17 4 8 6 6 6 -4 1 -9 10 -24 22 -35 28 -25 52 -72
43 -85 -3 -6 1 -18 9 -27 19 -21 35 -81 40 -150 2 -29 7 -55 11 -59 3 -3 -1
-15 -11 -25 -9 -10 -11 -18 -5 -18 6 0 10 -16 9 -39 -1 -27 -5 -37 -14 -34
-12 5 -15 15 -17 61 -1 9 -7 23 -14 31 -7 7 -10 16 -7 19 3 4 10 0 15 -8 8
-13 10 -13 10 1 0 9 -7 23 -16 30 -9 8 -28 32 -42 54 -53 86 -171 173 -256
189 -19 4 -42 14 -51 22 -13 14 -15 14 -15 0 0 -18 -16 -22 -22 -5 -3 8 -10 6
-21 -5 -10 -11 -17 -13 -17 -6 0 8 -9 10 -25 6 -14 -4 -25 -2 -25 4 0 5 -7 10
-16 10 -10 0 -14 -5 -10 -16 4 -9 2 -13 -5 -8 -6 4 -15 0 -20 -7 -14 -22 -11
-31 9 -25 30 10 202 15 202 6 0 -5 18 -11 39 -15 21 -3 54 -18 72 -33 60 -49
114 -97 117 -105 2 -4 14 -20 27 -35 13 -15 33 -61 46 -102 12 -41 30 -86 41
-99 19 -25 25 -56 8 -46 -7 4 -8 -8 -4 -36 5 -27 4 -40 -3 -36 -6 4 -8 -4 -6
-21 4 -25 3 -26 -11 -8 -11 13 -12 25 -5 43 5 13 9 43 9 65 0 34 -2 38 -14 29
-11 -9 -15 -9 -19 1 -3 7 -6 1 -6 -14 -1 -20 -6 -28 -18 -28 -17 -1 -17 -2 0
-15 11 -7 25 -11 33 -8 18 7 18 -2 -2 -33 -16 -24 -16 -26 5 -45 11 -11 21
-25 21 -32 0 -8 -4 -7 -10 3 -5 8 -13 11 -17 6 -4 -4 -8 -139 -9 -299 -1 -292
-8 -364 -40 -425 -8 -15 -14 -31 -14 -37 0 -5 -18 -39 -39 -74 -23 -36 -37
-70 -34 -79 5 -11 3 -13 -7 -7 -8 5 -11 4 -6 -3 3 -6 2 -13 -4 -17 -5 -3 -10
-14 -10 -23 0 -27 37 35 45 74 3 18 12 37 19 41 7 5 18 17 24 28 16 29 15 1
-2 -40 -8 -18 -12 -43 -9 -53 2 -11 -3 -34 -12 -52 -9 -18 -12 -29 -6 -26 14
9 -9 -56 -43 -120 -28 -54 -90 -127 -99 -117 -4 3 -10 -2 -13 -11 -5 -14 -9
-15 -15 -5 -5 9 -11 5 -20 -14 -12 -27 -29 -37 -29 -17 0 6 5 10 10 10 6 0 10
6 10 13 1 6 10 30 21 52 16 31 19 34 14 13 -3 -16 -1 -28 5 -28 5 0 10 7 10
15 0 8 4 23 9 33 20 39 66 202 57 202 -6 0 -5 5 2 12 7 7 12 16 12 22 0 5 -6
1 -14 -9 -8 -11 -12 -23 -10 -27 3 -5 1 -8 -3 -8 -5 0 -10 -13 -11 -29 -1 -16
-9 -44 -18 -63 l-15 -33 5 30 c4 27 3 28 -10 11 -9 -13 -12 -34 -9 -60 3 -23
2 -35 -1 -28 -9 19 -24 14 -24 -9 0 -22 -91 -201 -119 -233 -27 -31 -91 -54
-173 -62 -57 -5 -78 -4 -78 5 0 9 -5 9 -22 0 -14 -7 -57 -10 -122 -7 -82 4
-113 10 -159 31 -31 14 -57 31 -57 38 0 7 -3 10 -6 6 -12 -12 -124 95 -125
120 0 12 -2 14 -6 5 -3 -9 -18 0 -43 30 -28 31 -43 61 -55 107 -9 36 -24 83
-34 105 -30 65 -51 151 -47 186 4 34 -18 120 -33 130 -9 5 -22 98 -40 270 -3
36 -3 79 0 95 4 17 7 91 8 166 0 75 6 161 12 191 7 36 8 71 2 99 -5 24 -6 63
-3 86 4 26 2 44 -4 46 -8 3 -7 10 1 24 7 12 8 25 2 34 -13 20 -11 29 6 29 8 0
15 6 15 13 0 23 59 85 122 128 141 96 157 103 230 102 39 0 74 -6 83 -13 13
-11 14 -10 9 5 -6 14 -4 16 7 9 8 -5 43 -9 79 -10 51 -1 66 2 72 15 5 12 9 9
17 -14 8 -20 18 -31 31 -31 11 0 20 4 20 8 0 4 11 8 24 8 14 0 28 5 31 10 10
15 28 12 22 -4 -7 -19 22 -30 40 -15 7 7 16 9 19 6 4 -3 13 1 22 9 11 12 12
18 3 27 -10 9 -16 8 -27 -7 -8 -12 -14 -14 -14 -7 0 8 -6 11 -16 7 -8 -3 -12
-2 -9 4 3 6 -5 10 -19 10 -14 0 -26 -5 -26 -11 0 -8 -4 -8 -14 0 -11 9 -15 9
-19 -1 -4 -10 -7 -10 -14 -1 -12 18 -121 37 -136 25 -10 -8 -54 -9 -64 -2 -2
1 -22 2 -45 2 -24 0 -50 4 -58 8 -9 5 -37 1 -67 -10 -28 -10 -54 -15 -57 -12
-3 3 -6 1 -6 -5 0 -6 -13 -16 -30 -23 -16 -7 -30 -17 -30 -22 0 -5 -5 -6 -10
-3 -6 3 -13 -1 -16 -9 -3 -9 -10 -13 -15 -10 -5 3 -12 -2 -15 -10 -3 -9 -10
-16 -15 -16 -10 0 -26 -12 -65 -47 -14 -13 -29 -23 -34 -23 -6 0 -10 -6 -10
-14 0 -7 -8 -24 -19 -37 -20 -27 -33 -89 -18 -89 6 0 3 -8 -5 -17 -20 -24 -35
-63 -17 -45 25 24 30 11 7 -17 -29 -38 -40 -39 -33 -3 11 54 12 72 3 72 -5 0
-2 8 8 17 15 16 15 17 -2 24 -17 7 -18 8 -1 8 21 1 35 30 19 40 -7 4 -15 22
-18 41 -5 22 -4 31 3 27 7 -4 11 2 11 16 0 12 2 36 5 52 3 17 6 37 6 46 1 9
11 19 24 23 18 5 20 8 7 16 -10 6 -11 10 -2 10 6 0 12 6 12 14 0 8 8 21 18 28
11 7 24 23 31 36 6 12 16 22 22 22 5 0 24 16 41 36 17 19 37 33 44 30 8 -3 14
-2 14 3 0 15 74 60 115 70 22 5 51 13 65 16 19 5 22 4 10 -4 -10 -7 -11 -11
-3 -11 7 0 24 12 38 27 14 15 25 22 25 15 0 -6 7 -12 15 -12 9 0 12 6 8 16 -5
13 -2 15 14 10 12 -4 25 -1 33 9 15 18 37 20 42 3 3 -8 14 -5 34 8 69 47 84
52 84 29z m-677 -757 c-6 -7 -14 -28 -18 -47 -5 -25 -4 -32 5 -26 8 5 11 3 8
-6 -3 -8 -11 -13 -18 -11 -6 1 -10 -3 -7 -10 2 -7 11 -12 20 -10 11 2 15 -7
15 -34 0 -22 -3 -32 -8 -24 -4 7 -7 -6 -6 -29 0 -23 -5 -46 -13 -53 -14 -13
-14 -10 6 39 4 10 2 14 -4 10 -18 -11 -21 40 -4 59 15 17 15 17 -1 5 -14 -10
-17 -8 -21 16 -11 58 -6 90 20 117 24 26 46 30 26 4z m1443 -243 c-9 -13 -16
-35 -16 -49 0 -14 -4 -28 -10 -31 -6 -4 -10 6 -9 22 1 41 13 75 24 71 6 -2 12
8 14 22 3 19 5 21 9 7 2 -10 -3 -29 -12 -42z m-226 -1320 c-18 -89 -106 -192
-205 -242 -162 -83 -466 -126 -575 -82 -62 25 -208 249 -235 359 -24 99 -17
116 22 59 46 -66 118 -127 193 -163 l65 -31 210 0 c206 0 211 1 266 26 39 19
82 53 145 118 49 51 94 102 99 114 16 34 28 -95 15 -158z"/>
<path d="M1522 3039 c3 -8 2 -26 -2 -40 -5 -17 -4 -26 4 -26 15 0 19 64 5 73
-7 4 -10 1 -7 -7z"/>
<path d="M2154 2494 c3 -9 6 -32 7 -52 0 -32 1 -34 9 -14 6 13 6 32 0 46 -5
13 -6 27 -3 30 4 3 1 6 -6 6 -8 0 -11 -6 -7 -16z"/>
<path d="M906 2216 c-34 -59 -48 -96 -36 -96 6 0 10 7 10 15 0 9 10 32 23 53
24 38 39 72 33 72 -2 0 -16 -20 -30 -44z"/>
<path d="M1115 2211 c-11 -5 -20 -14 -20 -22 0 -7 -8 -15 -19 -17 -11 -3 -16
0 -12 7 4 6 2 11 -3 11 -6 0 -11 -9 -11 -20 0 -13 5 -18 15 -14 28 11 15 -15
-29 -60 -37 -37 -85 -106 -73 -106 11 0 66 59 58 61 -6 2 15 22 47 44 49 34
64 40 107 40 28 -1 65 -8 83 -17 33 -17 41 -12 20 12 -7 8 -2 5 12 -7 33 -28
55 -10 32 25 -14 22 -57 47 -74 44 -5 -1 -8 2 -8 7 0 16 -51 23 -68 9 -12 -10
-16 -10 -19 0 -5 14 -9 14 -38 3z"/>
<path d="M1002 2198 c-7 -7 -12 -17 -12 -24 0 -6 -8 -18 -17 -25 -15 -12 -16
-12 -10 4 3 9 2 17 -3 17 -6 0 -10 -6 -10 -13 0 -8 -9 -22 -19 -31 -10 -10
-21 -27 -25 -39 -4 -18 -3 -20 7 -7 7 8 26 20 42 25 17 6 28 14 27 19 -2 5 0
12 5 15 10 7 43 58 43 66 0 9 -16 5 -28 -7z"/>
<path d="M1712 2181 c-56 -5 -64 -9 -77 -35 -26 -50 -19 -63 18 -29 17 17 42
33 55 36 30 7 28 0 -8 -18 -16 -8 -35 -25 -41 -37 -10 -19 -9 -20 12 -14 13 5
52 12 86 18 74 12 154 -7 202 -48 37 -31 41 -53 6 -30 -37 24 -40 19 -6 -10
47 -39 37 -47 -20 -18 -43 23 -57 26 -105 20 -70 -8 -154 -50 -154 -76 0 -11
139 -32 168 -25 35 9 62 33 62 57 0 21 11 23 28 6 18 -18 15 -27 -20 -48 -18
-11 -26 -20 -18 -20 9 0 26 7 38 16 12 8 26 13 31 10 20 -13 37 85 20 115 -5
10 -23 26 -39 36 -17 10 -25 20 -19 24 15 9 -63 68 -100 75 -20 4 -31 2 -31
-5 0 -6 -7 -11 -16 -11 -8 0 -12 5 -9 10 3 6 5 9 3 8 -2 -1 -31 -4 -66 -7z
m131 -28 c19 -17 20 -17 14 0 -9 23 5 22 21 -3 10 -17 10 -20 -6 -17 -19 3
-72 37 -58 37 5 0 18 -8 29 -17z m-35 -217 c16 -18 16 -19 -10 -12 -39 9 -78
25 -78 31 0 3 15 14 33 25 l32 20 3 -22 c2 -13 11 -32 20 -42z m54 54 c11 0
18 -5 16 -12 -7 -21 -62 -16 -66 6 -3 14 0 17 13 12 9 -3 26 -6 37 -6z"/>
<path d="M1956 2168 c15 -51 24 -68 34 -68 5 0 10 11 10 25 0 14 -4 25 -9 25
-5 0 -13 9 -16 20 -3 11 -11 20 -16 20 -6 0 -7 -9 -3 -22z"/>
<path d="M2034 2092 c8 -16 22 -32 31 -36 12 -4 14 0 9 22 -8 33 -4 28 -32 37
-23 7 -23 6 -8 -23z"/>
<path d="M1189 2059 c14 -5 41 -20 60 -31 19 -12 31 -16 27 -10 -9 15 -80 52
-98 51 -7 0 -2 -5 11 -10z"/>
<path d="M1018 1997 c-26 -12 -48 -24 -48 -27 0 -3 19 -14 42 -25 41 -20 72
-22 241 -17 72 2 71 14 -3 60 -47 28 -63 32 -120 31 -44 0 -80 -8 -112 -22z
m52 -26 c0 -9 5 -22 12 -29 17 -17 -2 -14 -41 7 l-34 18 23 16 c26 18 40 14
40 -12z m90 14 c0 -10 -10 -15 -30 -15 -20 0 -30 5 -30 15 0 10 10 15 30 15
20 0 30 -5 30 -15z m86 -11 c48 -29 56 -39 22 -31 -13 4 -40 2 -60 -2 -35 -8
-37 -8 -27 11 6 11 8 26 5 34 -8 21 10 17 60 -12z"/>
<path d="M1676 1653 c22 -52 27 -78 20 -108 -6 -22 -12 -25 -59 -26 l-52 -1
43 -11 c39 -9 46 -8 65 12 15 15 21 33 21 59 -2 43 -28 112 -44 112 -6 0 -4
-15 6 -37z"/>
<path d="M1291 1656 c-16 -19 -25 -78 -17 -109 7 -30 54 -49 97 -40 56 11 45
26 -15 19 -54 -6 -57 -5 -68 20 -10 21 -9 35 4 72 18 50 18 61 -1 38z"/>
<path d="M1346 1557 c-16 -12 -14 -13 21 -13 21 -1 49 -4 63 -9 22 -7 23 -6
10 8 -22 22 -72 30 -94 14z"/>
<path d="M1555 1548 c-11 -6 -23 -16 -26 -21 -4 -5 -24 -13 -45 -17 l-39 -8
34 -1 c20 -1 42 6 54 16 13 12 35 18 68 18 28 0 48 4 46 10 -5 15 -69 17 -92
3z"/>
<path d="M1345 1436 c-27 -13 -54 -24 -60 -25 -5 -2 -15 -7 -21 -12 -7 -5 -22
-12 -34 -14 -12 -2 -31 -7 -42 -11 -16 -5 -19 -3 -13 7 6 9 2 8 -11 -2 -10 -9
-26 -20 -34 -24 -13 -8 -13 -6 0 11 8 11 3 7 -12 -10 -32 -34 -35 -46 -12 -46
8 0 12 -5 9 -10 -8 -13 44 9 68 28 9 9 17 11 17 7 0 -5 12 2 27 16 14 13 23
18 19 12 -4 -7 -2 -13 3 -13 6 0 11 3 11 8 0 6 15 9 71 15 16 1 47 27 33 27
-4 0 3 11 16 25 13 14 22 27 19 29 -2 2 -26 -6 -54 -18z"/>
<path d="M1439 1443 c-1 -5 -1 -11 0 -15 0 -5 -3 -8 -9 -8 -5 0 -10 5 -10 10
0 6 -11 3 -24 -6 -28 -17 -25 -50 3 -38 30 13 82 10 94 -5 9 -12 9 -13 0 -7
-8 4 -13 2 -13 -4 0 -7 7 -9 16 -6 9 3 20 6 26 6 6 0 6 6 -2 15 -10 11 -10 15
0 15 20 0 5 25 -16 26 -67 4 -69 4 -54 14 10 6 11 10 3 10 -7 0 -14 -3 -14 -7z"/>
<path d="M1520 1443 c0 -6 7 -16 15 -23 13 -11 13 -15 3 -22 -8 -5 -3 -7 15
-4 15 3 27 0 27 -5 0 -5 7 -9 15 -9 8 0 15 3 15 8 0 9 -49 62 -57 62 -4 0 -2
-5 5 -12 24 -24 12 -31 -13 -8 -14 13 -25 19 -25 13z"/>
<path d="M1610 1430 c-15 -9 24 -42 42 -35 8 3 28 -8 48 -29 29 -29 44 -36 92
-41 51 -6 59 -10 73 -37 8 -17 16 -54 16 -82 l2 -51 8 45 c4 25 8 61 8 80 0
28 -2 31 -9 15 -8 -19 -9 -19 -9 2 -1 12 -6 25 -11 28 -6 4 -8 10 -5 15 3 4
-2 11 -11 14 -22 9 -26 8 -18 -5 4 -7 1 -10 -7 -7 -8 3 -13 10 -12 15 1 5 -3
10 -10 10 -7 0 -43 15 -82 34 -73 34 -97 40 -115 29z"/>
<path d="M1247 1290 c-43 -21 -73 -41 -67 -45 6 -4 133 -6 283 -6 l272 1 -30
-25 c-65 -55 -119 -75 -202 -75 -57 0 -74 -3 -63 -11 11 -7 -6 -9 -62 -7 -61
3 -74 1 -66 -9 12 -15 208 -16 243 -2 17 7 16 8 -10 10 -21 1 -15 4 23 10 66
11 122 39 154 77 14 16 38 37 54 45 26 14 27 16 7 17 -12 0 -44 12 -73 26 -28
14 -56 24 -63 21 -14 -4 45 -37 68 -37 8 0 15 -4 15 -10 0 -6 -70 -10 -189
-10 -103 0 -216 -3 -250 -6 -34 -4 -61 -3 -61 2 0 5 30 23 68 41 37 17 58 32
47 32 -11 0 -55 -17 -98 -39z"/>
<path d="M990 1209 c5 -18 7 -36 4 -40 -3 -5 -1 -9 4 -9 4 0 9 -21 11 -47 1
-27 6 -52 12 -57 11 -12 11 -7 -1 74 -14 92 -19 110 -29 110 -6 0 -6 -13 -1
-31z"/>
<path d="M1242 1200 c7 -11 34 -29 60 -40 65 -28 84 -25 23 4 -27 12 -56 30
-64 39 -19 24 -34 21 -19 -3z"/>
<path d="M973 1149 c3 -37 12 -79 21 -95 8 -16 15 -25 16 -21 0 5 -4 16 -10
26 -5 10 -12 47 -15 82 -8 85 -18 92 -12 8z"/>
<path d="M1859 1096 c0 -1 -3 -12 -5 -26 -2 -13 -9 -27 -15 -30 -6 -4 -5 -11
5 -19 15 -13 32 1 22 18 -3 4 1 17 9 27 18 24 18 31 0 31 -8 0 -15 -1 -16 -1z"/>
<path d="M591 2118 c-7 -12 -18 -67 -23 -122 -11 -108 -14 -95 46 -254 25 -66
111 -188 137 -195 33 -9 38 2 11 23 -13 11 -20 24 -16 34 3 9 1 16 -5 16 -6 0
-11 11 -11 25 0 13 -6 28 -14 32 -8 4 -26 30 -40 57 -25 47 -26 56 -24 178 l3
129 48 -53 c39 -42 45 -46 30 -20 -25 47 -71 94 -86 89 -8 -2 -13 -40 -15
-127 l-3 -123 38 -76 c64 -131 65 -139 8 -64 -23 31 -46 80 -66 146 -33 104
-34 160 -8 260 13 48 29 54 79 28 45 -23 60 -26 60 -11 0 6 -5 10 -11 10 -6 0
-22 9 -36 20 -35 27 -84 26 -102 -2z"/>
<path d="M2320 2073 c-61 -43 -114 -139 -91 -166 6 -8 14 -42 17 -76 6 -54 5
-61 -10 -55 -11 4 -16 1 -16 -12 0 -11 -3 -30 -6 -44 -5 -22 -4 -23 8 -9 7 9
22 21 34 27 36 19 40 95 9 158 -14 28 -25 54 -25 57 0 10 63 97 70 97 4 0 13
-45 20 -100 15 -115 7 -159 -39 -213 -26 -29 -49 -87 -36 -87 3 0 13 15 21 33
8 17 26 47 39 66 35 48 45 92 45 199 0 75 -3 92 -15 92 -8 0 -15 4 -15 9 0 5
7 11 15 15 15 6 21 26 7 26 -4 0 -19 -8 -32 -17z"/>
<path d="M743 1910 c-22 -53 -53 -141 -53 -150 0 -11 80 -64 86 -57 7 7 -7 37
-18 37 -5 0 -7 4 -4 9 4 5 1 20 -4 33 -10 22 -10 22 -5 -4 6 -31 3 -33 -26
-17 -18 9 -19 12 -6 22 21 17 50 100 45 128 l-4 24 -11 -25z"/>
<path d="M2209 945 c0 -5 0 -26 1 -47 1 -20 -4 -56 -11 -80 -13 -44 -72 -152
-96 -176 -7 -7 -13 -18 -13 -23 0 -6 -6 -7 -12 -3 -7 4 -10 4 -6 -1 4 -4 -7
-33 -24 -64 -38 -67 -29 -60 44 39 107 144 162 291 130 346 -6 11 -12 15 -13
9z"/>
<path d="M2335 758 c-2 -7 -22 -67 -43 -133 -66 -201 -138 -396 -176 -477 -33
-70 -48 -126 -28 -102 48 54 284 724 255 724 -2 0 -6 -6 -8 -12z"/>
<path d="M2840 655 c63 -19 126 -34 140 -33 23 0 23 0 -5 9 -64 20 -221 59
-235 58 -8 0 37 -16 100 -34z"/>
<path d="M2257 657 c-25 -39 -87 -158 -87 -168 0 -12 30 -12 31 1 1 6 3 15 4
20 1 6 3 19 4 31 1 12 5 17 13 13 6 -4 8 -3 4 4 -6 10 22 69 46 100 6 7 9 15
6 18 -3 2 -12 -6 -21 -19z"/>
<path d="M871 638 c0 -9 11 -54 25 -100 15 -46 35 -121 44 -168 17 -80 18 -82
19 -37 1 32 -12 89 -38 165 -21 65 -41 126 -44 137 -4 15 -5 16 -6 3z"/>
<path d="M1989 564 c-38 -41 -142 -111 -207 -139 -23 -10 -40 -20 -38 -23 8
-8 169 76 208 108 33 27 86 90 76 90 -2 0 -20 -16 -39 -36z"/>
<path d="M2051 497 l-74 -82 78 77 c44 43 77 79 75 82 -3 2 -38 -32 -79 -77z"/>
<path d="M65 510 c-22 -11 -29 -17 -16 -14 38 10 88 33 71 33 -8 0 -33 -8 -55
-19z"/>
<path d="M2033 448 c-44 -46 -90 -103 -103 -128 -41 -83 -98 -149 -150 -175
-44 -22 -59 -25 -113 -19 -55 5 -66 3 -96 -18 -40 -27 -97 -95 -88 -104 3 -4
23 11 44 33 44 47 85 63 159 63 l53 0 -10 -32 c-11 -41 -12 -71 0 -64 5 3 12
26 15 51 7 42 11 47 51 66 25 12 60 38 80 60 19 21 39 39 45 39 6 0 8 -17 6
-40 -2 -22 0 -37 5 -34 5 3 9 -2 9 -11 0 -24 109 -135 133 -135 15 0 10 9 -27
46 -67 69 -86 114 -86 210 l0 80 50 59 c27 33 63 77 80 98 51 60 30 43 -57
-45z"/>
<path d="M2133 456 c-39 -46 -44 -59 -9 -24 23 25 36 32 36 22 0 -17 21 -15
27 3 7 21 -35 21 -54 -1z"/>
<path d="M1154 407 c-16 -19 -58 -75 -93 -125 -35 -51 -80 -107 -100 -125
l-37 -33 33 0 c19 1 35 7 38 16 5 11 8 12 14 2 6 -10 14 -8 32 8 16 15 19 20
7 16 -23 -7 -32 9 -13 24 8 7 15 17 15 22 0 6 10 23 23 38 12 15 38 51 57 78
47 67 71 80 106 57 29 -19 25 -6 -9 33 -28 30 -40 28 -73 -11z"/>
<path d="M1827 391 c-42 -21 -111 -45 -153 -55 -93 -22 -90 -32 4 -16 71 12
167 52 212 89 33 27 29 26 -63 -18z"/>
<path d="M2126 352 c-10 -21 -18 -44 -20 -52 -2 -8 -8 -28 -15 -44 -6 -16 -10
-34 -8 -39 3 -9 18 21 63 130 20 46 0 50 -20 5z"/>
<path d="M1338 352 c-27 -5 -23 -58 6 -87 14 -14 42 -27 66 -31 22 -4 57 -20
77 -35 20 -16 44 -29 54 -29 29 0 23 -15 -22 -51 -39 -31 -95 -106 -86 -115 3
-3 21 17 41 45 20 27 57 63 83 80 25 17 62 49 81 72 l35 41 -41 -21 c-23 -12
-42 -26 -42 -31 0 -6 -11 -10 -25 -10 -18 0 -51 24 -113 83 -48 45 -89 84 -92
87 -3 3 -13 4 -22 2z m41 -48 c17 -14 31 -32 31 -39 0 -20 -38 -6 -60 23 -38
47 -20 57 29 16z"/>
<path d="M1777 235 c-23 -27 -33 -45 -24 -45 15 0 49 34 66 68 19 36 -1 25
-42 -23z"/>
</g>
</svg>
