<svg version="1.1" id="Layer_1" xmlns="http://www.w3.org/2000/svg" xmlns:xlink="http://www.w3.org/1999/xlink" x="0px" y="0px"
	 width="100%" viewBox="0 0 800 880" enable-background="new 0 0 800 880" xml:space="preserve">
<path fill="#000000" opacity="1.000000" stroke="none" 
	d="
M401.466858,881.000000 
	C407.822083,870.817932 416.779236,863.082458 427.828827,857.817017 
	C430.440765,856.572449 433.260284,856.661377 436.156250,857.075684 
	C443.237152,858.088806 450.352417,858.865356 457.458710,859.695618 
	C461.035004,860.113464 464.166901,858.876648 467.529266,857.636841 
	C488.577637,849.875122 500.828522,833.493347 510.638458,814.589233 
	C512.686707,810.642151 514.676575,806.664795 516.922668,802.250854 
	C505.875519,808.126343 494.801880,807.996094 483.581604,805.676575 
	C480.334839,805.005371 477.911743,806.650940 475.842499,808.281189 
	C469.492889,813.283508 461.993835,817.087524 457.899048,824.599548 
	C457.518982,825.296753 456.857544,826.044495 456.151123,826.322571 
	C453.841003,827.231873 451.047455,828.403564 449.097504,826.606140 
	C446.834137,824.519775 449.234070,822.349365 450.350006,820.433533 
	C451.777771,817.982361 454.687744,816.727783 455.757599,813.963684 
	C456.358368,812.411621 457.139709,810.747070 455.983582,809.209534 
	C454.895905,807.763062 453.301453,808.374146 451.818604,808.610046 
	C444.788757,809.728210 437.679321,808.626770 430.532318,809.434387 
	C435.780884,805.491699 441.956726,804.303223 447.981720,803.048767 
	C464.123962,799.687866 479.113556,793.457336 493.439209,785.492065 
	C495.452576,784.372559 499.103760,783.220337 495.139496,780.065857 
	C495.754272,777.650269 498.757080,776.968140 499.024750,774.368530 
	C497.151184,772.184692 494.884125,775.346680 492.679138,773.602783 
	C492.523346,770.790588 495.013916,769.864563 496.923157,768.507263 
	C507.089813,761.279480 517.640625,754.593140 526.773254,745.957581 
	C542.021423,731.539246 553.936523,714.974548 560.733582,694.958618 
	C562.975769,688.355957 563.485229,681.628418 562.393860,674.757751 
	C560.097595,660.302002 558.415405,645.700073 552.070496,632.224426 
	C549.940491,627.700500 547.210022,623.610840 542.741455,620.141907 
	C543.035095,624.123291 543.369995,628.102051 543.615295,632.086365 
	C544.725281,650.114807 543.309692,667.765869 534.524597,683.998474 
	C529.503174,693.276672 522.730225,701.306335 515.088013,708.595215 
	C511.064819,712.432434 507.881897,716.791260 506.232025,722.265198 
	C505.470428,724.791992 505.405304,726.858643 506.260925,729.430908 
	C509.737305,739.882385 501.113281,749.678833 490.271271,747.538269 
	C482.373413,745.979004 474.308502,746.652100 466.427124,745.204590 
	C464.260345,744.806702 462.558044,745.934753 461.042816,747.322876 
	C451.991699,755.615662 440.963989,755.792480 429.649261,755.173401 
	C416.676147,754.463684 404.154236,757.274231 391.788940,760.755981 
	C389.020142,761.535583 386.333496,762.147156 383.475281,762.086731 
	C375.636932,761.920776 368.850159,765.554688 362.335236,769.008911 
	C358.277588,771.160217 356.762054,776.281189 356.139893,781.037109 
	C355.873291,783.075134 357.139496,784.335144 358.709045,785.534912 
	C370.219788,794.333496 383.006927,799.103027 397.660980,798.210510 
	C399.643860,798.089722 401.683105,797.902344 403.377197,799.752686 
	C403.047668,802.888062 400.559357,802.820740 398.286591,803.106567 
	C396.979523,803.270874 395.451599,803.291260 395.053314,804.904541 
	C394.690094,806.375488 395.646759,807.411865 396.704010,808.302490 
	C396.831482,808.409790 396.937775,808.566406 397.083862,808.623901 
	C407.415924,812.690796 411.336670,822.908875 418.006073,830.479492 
	C422.067749,835.089905 426.983215,835.772705 432.524414,834.141174 
	C435.366119,833.304382 438.168243,832.209351 441.098572,833.613220 
	C441.732635,836.174805 439.734619,837.336426 438.836151,839.021851 
	C432.126465,851.608459 419.352844,857.223877 408.720734,865.281067 
	C404.815338,868.240723 401.782654,872.363770 396.788757,874.578552 
	C395.963348,871.515442 397.673645,869.807861 399.223114,868.231140 
	C402.724487,864.667969 406.412201,861.288696 409.963043,857.772949 
	C413.982605,853.793152 413.991760,850.889343 409.102081,848.315430 
	C398.757233,842.869751 389.522217,835.720520 377.605347,832.663757 
	C366.431061,829.797424 354.986328,825.932617 345.697266,818.120117 
	C343.129364,815.960266 340.012970,814.640198 336.861145,813.528015 
	C328.631989,810.624023 323.771210,811.866516 318.455780,818.853455 
	C313.720642,825.077576 306.607483,828.498291 301.380951,834.096680 
	C293.685303,842.339722 287.542358,852.127991 277.969025,858.494568 
	C272.050598,862.430481 266.918182,867.563110 260.030670,870.072571 
	C253.802582,872.341736 252.127106,871.087341 249.724380,865.139221 
	C247.472183,859.563843 249.483734,856.946167 253.590530,853.611572 
	C264.827118,844.487915 272.761505,832.405579 281.189423,820.846436 
	C289.431274,809.542358 297.104431,797.822693 305.384308,786.547668 
	C309.395233,781.085754 313.739624,775.764771 321.710571,775.569092 
	C325.244751,775.482361 325.149628,772.750854 323.749634,770.044556 
	C320.974213,764.679260 316.080566,760.911743 313.182007,755.574768 
	C310.812134,751.211365 307.764679,747.174683 304.701660,743.239197 
	C300.583588,737.948181 297.645508,732.287598 295.246246,725.911804 
	C292.981903,719.894470 287.901581,714.940002 284.077362,709.505737 
	C273.714447,694.779846 264.026276,679.974792 260.074799,661.725830 
	C257.755707,651.015503 254.111359,640.759399 254.786270,629.522034 
	C254.979248,626.308899 255.153061,622.242920 251.119461,619.953003 
	C249.434265,618.996399 250.085892,616.651245 250.441803,614.822388 
	C250.945938,612.232178 251.854935,609.703064 251.011429,606.958740 
	C250.356125,604.826843 247.952347,602.308105 249.944412,600.483154 
	C253.072495,597.617432 256.752899,595.113403 260.614166,593.380066 
	C262.915955,592.346802 264.523315,595.016479 264.855347,597.217651 
	C265.766479,603.257935 268.451935,609.605774 267.799622,615.112488 
	C266.988556,621.959106 269.699646,625.186462 273.327148,629.825378 
	C275.954468,633.185242 279.505981,635.021240 282.232697,638.079163 
	C292.626678,649.735901 305.013184,659.386658 317.449921,668.697937 
	C328.406036,676.900757 341.177368,681.924866 354.992432,683.861206 
	C371.427856,686.164795 387.825348,686.505310 404.268829,684.035278 
	C408.745270,683.362854 413.229828,684.339661 417.712524,684.509399 
	C436.728027,685.229614 455.490570,684.251038 472.050415,673.406982 
	C481.845764,666.992676 486.252167,656.516968 490.649719,646.225586 
	C491.371552,644.536316 490.350922,642.973511 489.690765,641.460449 
	C488.120636,637.861755 489.253876,635.112000 491.814178,632.838928 
	C494.554077,633.269897 493.669495,635.695618 494.990875,636.992554 
	C500.428314,626.396423 508.859558,617.385742 510.596069,605.098022 
	C511.161224,601.098938 513.033813,599.925598 516.512268,601.662354 
	C520.627319,595.184265 513.949036,587.426270 519.370361,581.615295 
	C521.670898,581.043335 521.503601,583.773865 523.246216,583.852295 
	C529.966919,573.094421 531.337585,560.035889 538.312134,549.285461 
	C538.233887,553.473938 538.558960,557.510193 536.451538,561.792603 
	C531.048340,572.772217 529.244080,584.926392 526.195190,596.669739 
	C524.369080,603.703247 522.852356,610.881531 517.824951,616.602478 
	C516.855286,617.705994 516.371887,619.238037 514.577820,619.393250 
	C509.171448,619.861267 507.961975,621.356079 507.722809,627.772339 
	C508.679443,628.271729 509.226624,627.606689 509.824768,627.043884 
	C510.424438,626.479614 511.048767,625.941467 511.614563,625.434631 
	C519.635193,629.032715 522.660156,628.847168 527.738342,621.107605 
	C533.943726,611.649902 542.384399,603.697937 546.933167,593.191589 
	C551.877869,581.770874 557.584106,570.652344 560.472229,558.388550 
	C562.072205,551.594543 564.510742,545.025696 564.130798,537.855225 
	C563.978210,534.974915 565.921509,533.440430 568.890259,532.963562 
	C570.864502,535.945190 570.559326,539.178406 570.330322,542.224365 
	C569.804626,549.217651 568.753235,556.165161 565.235107,562.395264 
	C563.603821,565.283997 564.505554,567.086426 567.044800,568.577454 
	C582.475159,577.638245 593.505676,591.052246 603.166504,605.674438 
	C605.964905,609.909912 607.638611,614.902954 609.696838,619.606140 
	C610.562012,621.583069 611.871155,622.905090 613.855103,623.634277 
	C638.508057,632.694946 662.209900,644.193542 687.513245,651.637512 
	C704.590271,656.661255 721.080688,663.495789 737.183289,671.106445 
	C743.705566,674.189148 748.952820,678.375977 750.574585,686.559265 
	C751.810608,692.796021 758.869385,693.074707 764.118896,696.414673 
	C764.011780,689.845276 756.879517,689.337524 756.497314,684.064453 
	C759.558716,682.739807 762.173279,684.205139 764.663208,685.154846 
	C769.013367,686.814148 773.128845,689.096313 777.494263,690.706360 
	C782.391479,692.512573 781.995239,695.782043 780.501648,699.540466 
	C779.038330,703.222656 774.988159,705.499390 772.095459,703.143127 
	C764.333862,696.821167 756.357849,699.854858 748.356018,701.473633 
	C744.777954,702.197510 741.402893,701.093140 737.928528,701.090088 
	C736.099854,701.088501 734.230957,700.971130 732.450317,701.293213 
	C728.375366,702.030457 727.805054,703.700684 730.346924,706.906433 
	C731.055847,707.800598 732.104004,708.486816 732.048706,709.821960 
	C726.694092,712.341125 690.783875,706.239685 685.140991,701.823975 
	C684.861267,699.375488 689.836182,699.102966 687.850403,696.315735 
	C686.241760,694.057739 683.185974,695.329590 680.803650,694.872742 
	C670.140198,692.827942 660.467407,696.518250 650.729553,699.909790 
	C643.984314,702.259033 642.649292,708.203674 647.743225,713.280212 
	C653.848633,719.364685 653.262146,724.493225 645.635071,728.575623 
	C642.428833,730.291748 640.416260,732.509399 639.565979,735.983582 
	C638.611206,739.884705 636.989990,743.518188 635.142151,747.094360 
	C632.684692,751.850037 631.579712,756.930786 630.806702,762.318237 
	C629.479980,771.564941 625.924622,780.324463 618.833374,786.759949 
	C611.246460,793.645142 606.812683,802.357117 603.584412,811.617859 
	C596.078125,833.150574 588.195374,854.539795 580.251343,875.910217 
	C579.735168,877.298584 579.473877,878.781616 579.046997,880.610352 
	C576.958313,881.000000 574.916687,881.000000 572.523560,880.651245 
	C579.457092,863.855530 585.478210,846.916565 591.509521,829.992798 
	C598.547546,810.244263 605.041687,790.301147 612.146484,770.577332 
	C618.634888,752.564697 625.430908,734.665894 629.714966,715.956726 
	C632.098267,705.548157 633.960144,694.979553 633.363098,684.307251 
	C632.448792,667.962402 625.945679,653.410889 617.701660,639.495056 
	C615.018372,634.965698 610.797241,635.335876 606.787903,635.219299 
	C603.217041,635.115356 601.199585,637.693970 599.874146,640.823364 
	C598.097107,645.019287 597.169556,649.390442 596.981567,653.925720 
	C596.225464,672.157898 590.172974,688.524414 581.012695,704.258911 
	C573.533447,717.105835 564.689453,728.931213 556.518311,741.255066 
	C553.610657,745.640381 550.283142,749.950684 549.592102,755.862366 
	C554.993713,753.522644 557.146790,747.890930 563.283752,745.563599 
	C559.636047,755.915466 551.169250,761.079895 545.921448,768.662170 
	C552.145630,764.631409 556.099915,757.822510 563.268860,753.849976 
	C563.452637,757.216492 561.922791,758.419067 560.814697,759.826477 
	C550.416870,773.033691 537.986816,784.524780 528.388733,798.425354 
	C525.627686,802.424072 523.999451,806.414795 524.147644,811.368042 
	C524.401489,819.855286 524.068298,828.358582 524.229126,836.850464 
	C524.389587,845.325256 526.789062,853.164062 531.073364,860.556152 
	C535.463989,868.131775 541.574280,874.279846 547.000000,881.000000 
	C543.307068,881.000000 539.614197,881.000000 535.283081,880.719727 
	C531.548218,876.516724 528.037598,873.093384 524.013855,870.044189 
	C519.811401,866.859680 515.462585,863.749146 512.132446,859.499817 
	C508.057068,854.299377 504.722992,853.908997 498.713257,856.676514 
	C491.814362,859.853516 484.864716,863.147400 477.606506,865.248413 
	C471.298676,867.074341 467.125824,871.250183 467.000000,881.000000 
	C465.285645,881.000000 463.571289,881.000000 461.372955,880.567993 
	C461.218445,877.329651 461.501068,874.516846 461.889801,871.718811 
	C462.325592,868.582214 461.708466,866.601624 457.878754,866.577087 
	C446.013184,866.501221 434.316711,866.747437 423.729614,873.395752 
	C420.594147,875.364624 418.216492,877.550964 417.000000,881.000000 
	C411.977905,881.000000 406.955811,881.000000 401.466858,881.000000 
M356.579468,752.804199 
	C370.905670,753.029907 385.249786,753.070435 399.479431,751.301208 
	C426.082916,747.993469 451.346375,739.697632 475.977936,729.482788 
	C499.402740,719.768555 516.963867,703.117859 529.920044,681.567688 
	C539.466980,665.688171 538.696411,648.093323 537.236389,630.573914 
	C536.955627,627.205017 537.819153,623.374512 535.224976,619.760193 
	C529.641113,628.194397 522.330017,634.331665 515.945374,641.302124 
	C507.420380,650.609436 499.738190,660.749817 489.906311,668.833801 
	C474.723999,681.316956 457.680634,689.046448 437.822632,690.634705 
	C428.778168,691.358154 419.879730,690.263855 410.921692,690.322021 
	C397.941895,690.406189 384.966766,691.324829 371.987640,691.375977 
	C353.999725,691.446838 336.641510,688.516235 320.222473,680.452148 
	C301.811005,671.409485 287.648071,657.626160 274.845123,642.073303 
	C271.306458,637.774536 268.588013,632.753540 263.436340,628.627075 
	C263.436340,631.956726 263.093689,634.589355 263.505005,637.098389 
	C264.472382,642.999268 265.853363,648.830994 266.971680,654.708862 
	C270.586853,673.709717 281.628998,689.217407 291.291046,705.243591 
	C299.544128,718.932739 310.735992,730.564697 320.600830,743.127625 
	C323.843109,747.256775 328.222656,749.757812 333.278534,750.476379 
	C340.680267,751.528259 348.092102,752.726501 356.579468,752.804199 
M389.401703,817.059570 
	C388.849609,819.471436 390.228149,821.217590 391.512268,822.950745 
	C393.787933,826.022461 396.259369,828.955322 398.430145,832.097351 
	C403.157349,838.939514 410.199066,841.397705 417.900391,842.663879 
	C419.225372,842.881592 420.654053,842.839600 421.377289,841.378296 
	C421.974670,840.171265 421.421448,839.093750 420.633331,838.180298 
	C413.899323,830.376343 407.219391,822.477600 398.775879,816.442078 
	C396.088135,814.520691 393.537445,811.851685 389.909119,811.760559 
	C388.624634,813.407898 389.691925,814.914917 389.401703,817.059570 
M360.342194,807.896729 
	C359.453430,807.704468 358.537170,807.761292 358.514893,808.869141 
	C358.416260,813.770691 363.403076,819.689331 368.837677,821.171204 
	C367.748291,818.140076 364.161865,816.612854 363.758942,812.840698 
	C370.306885,812.988525 370.695740,820.022888 375.157227,822.148071 
	C373.070984,814.760742 368.104370,810.331909 360.342194,807.896729 
M316.224060,746.873535 
	C318.248596,754.091736 323.619080,758.549011 329.002838,762.995422 
	C329.331696,762.728455 329.660522,762.461487 329.989380,762.194458 
	C325.570190,757.099609 321.151001,752.004761 316.224060,746.873535 
z"/>
<path fill="#000000" opacity="1.000000" stroke="none" 
	d="
M1.000000,741.468628 
	C12.800297,736.572571 24.356573,731.493530 36.410191,727.742188 
	C37.522247,727.396057 38.607494,726.952454 39.733292,726.663635 
	C45.812920,725.103760 46.979465,726.107849 45.792965,732.204773 
	C44.636673,738.146423 43.640858,743.956299 47.087536,749.606689 
	C47.878067,750.902588 48.140991,752.944214 47.783825,754.436096 
	C46.742485,758.785889 47.485897,762.525452 49.950867,766.258362 
	C51.888569,769.192749 50.349010,771.881470 47.784203,773.544800 
	C44.000877,775.998352 42.491516,779.518433 41.153286,783.640015 
	C39.021595,790.205444 34.974258,795.719971 29.700977,800.278625 
	C20.771774,807.997559 11.099924,814.725281 1.244273,821.767944 
	C1.000000,795.312439 1.000000,768.624878 1.000000,741.468628 
z"/>
<path fill="#000000" opacity="1.000000" stroke="none" 
	d="
M556.375000,881.000000 
	C555.405212,873.178467 558.356995,866.158081 561.858521,859.614441 
	C573.309082,838.215515 581.390076,815.537415 588.489319,792.441711 
	C593.284973,776.840210 599.795898,761.842041 604.910645,746.366882 
	C609.497986,732.487244 614.938110,718.861450 618.132263,704.528381 
	C618.616333,702.356201 619.154358,699.924744 621.810059,698.599548 
	C624.957581,701.319641 624.474670,704.846680 623.569092,708.111755 
	C619.924744,721.251343 616.040405,734.324219 612.282959,747.432617 
	C610.007263,755.371582 608.878723,764.052185 605.476685,771.178040 
	C594.147949,794.907593 587.076477,820.287354 575.882568,844.012085 
	C570.202393,856.050964 564.731262,868.188477 559.082825,880.640686 
	C558.250000,881.000000 557.500000,881.000000 556.375000,881.000000 
z"/>
<path fill="#000000" opacity="1.000000" stroke="none" 
	d="
M204.982178,390.020111 
	C207.384979,387.240143 208.351807,383.811584 208.581528,380.334747 
	C209.395126,368.020752 209.438385,355.702850 207.477417,343.465912 
	C207.136612,341.339294 206.646103,339.202881 205.257080,337.428650 
	C203.360886,335.006592 203.048904,332.504639 204.065048,329.486511 
	C205.696106,324.642090 201.202850,313.465546 196.763138,310.688599 
	C193.921539,308.911194 192.236328,306.584167 191.610931,303.168640 
	C189.747437,292.991394 189.197662,282.683228 188.862534,272.410126 
	C188.604523,264.500549 186.712143,256.957123 185.468781,249.262787 
	C184.741898,244.764694 184.649963,240.265762 185.926392,235.887360 
	C186.760300,233.026825 186.234940,230.257858 186.008545,227.467926 
	C185.311111,218.872742 187.231445,210.717209 189.265594,202.433487 
	C191.051559,195.160492 189.993683,187.504562 189.897827,180.031921 
	C189.838593,175.413727 189.967438,171.065994 192.681213,167.152771 
	C197.249435,160.565491 196.007019,153.111847 195.510696,145.911728 
	C195.171463,140.990677 196.090210,136.888275 200.405716,134.374298 
	C206.452682,130.851669 209.051453,124.558960 213.018112,119.397186 
	C215.710709,115.893311 218.375824,112.246758 219.330032,107.657013 
	C219.734009,105.713837 221.739868,105.147568 223.657547,104.808723 
	C227.436752,104.140945 230.355835,102.134171 232.380798,98.832314 
	C232.898804,97.987648 233.426300,96.867630 234.228531,96.522156 
	C241.854492,93.238159 245.111267,85.514610 250.839203,80.305908 
	C255.689346,75.895424 261.077759,72.413567 266.726044,69.183754 
	C276.013458,63.873005 286.313660,62.537563 296.567413,60.393410 
	C307.245636,58.160496 317.356140,53.520470 327.611816,49.620216 
	C334.991364,46.813778 341.952728,43.024410 350.169373,42.145290 
	C355.722076,41.551193 361.441864,39.782578 366.340607,36.382347 
	C369.061890,34.493507 372.474182,35.179562 375.558594,34.618671 
	C383.370331,33.198132 390.657043,29.679842 399.343109,32.709682 
	C402.676727,33.872520 408.756012,31.752165 412.856628,29.555708 
	C416.342621,27.688446 419.169678,27.767586 422.210876,29.418591 
	C428.070801,32.599823 434.417328,33.644428 440.921661,34.024456 
	C443.799530,34.192604 446.561798,34.680637 449.117920,35.978443 
	C454.018463,38.466591 459.006165,40.533195 464.522308,41.390202 
	C470.423462,42.307022 476.288635,43.452156 481.107178,47.607819 
	C482.353546,48.682793 484.532990,48.683556 486.289459,49.157036 
	C487.729950,49.545334 489.551727,49.469685 490.565125,50.342243 
	C499.095062,57.686512 510.888885,58.425861 519.760193,64.610054 
	C527.919617,70.297928 537.380249,73.584274 545.214355,79.697372 
	C547.161072,81.216408 549.292664,82.570183 551.505432,83.663559 
	C559.119812,87.425880 562.289551,95.644417 568.759338,100.583168 
	C577.337646,107.131493 583.075012,116.542213 591.390625,123.434189 
	C595.917053,127.185684 597.793335,133.274902 598.306335,138.396301 
	C599.223206,147.549606 603.296143,155.495270 605.463379,164.099564 
	C606.505493,168.236893 606.935547,172.428452 609.106018,176.366318 
	C611.131165,180.040527 607.740967,184.095276 609.016296,188.489288 
	C611.321167,196.430588 611.190430,204.892792 612.721436,213.090515 
	C613.852966,219.149719 612.121094,225.683929 612.527222,231.950623 
	C613.413391,245.624466 611.889709,259.097778 610.817688,272.677704 
	C610.229492,280.129242 611.663757,287.840240 611.215210,295.507111 
	C610.888428,301.092651 610.148865,306.455688 607.455139,311.382629 
	C604.978516,315.912598 606.267334,321.734894 602.064941,326.051575 
	C607.852783,326.087921 612.041626,323.002380 615.971619,320.074402 
	C627.666870,311.361053 637.949341,317.639130 642.392334,330.215942 
	C647.643616,345.080933 647.305054,360.546234 649.061462,375.791748 
	C649.665955,381.038788 648.100647,386.301178 645.390625,390.575104 
	C640.841187,397.750031 639.707397,405.895447 637.257141,413.675293 
	C636.108337,417.322845 634.873169,420.915619 631.253357,423.389587 
	C632.350708,419.741760 633.406067,416.080688 634.553467,412.448700 
	C637.509460,403.091614 641.481201,393.929840 643.271851,384.357941 
	C646.425293,367.501221 645.494385,351.112244 631.287231,338.176025 
	C631.012085,338.016327 631.033813,338.047211 631.033813,338.047211 
	C634.838074,335.119507 636.395264,331.290497 633.664795,327.166412 
	C631.079773,323.261963 626.754822,322.440002 622.537964,324.278015 
	C614.459839,327.799072 605.566162,329.050293 597.779602,333.284393 
	C590.894287,337.028412 588.797119,343.762268 588.022644,350.780884 
	C586.553772,364.091797 588.557556,377.264282 589.769714,390.531128 
	C591.036926,404.400208 590.298279,418.464508 588.975891,432.423920 
	C587.249207,450.650055 584.905090,468.785339 582.143555,486.882080 
	C581.339966,492.148041 579.430176,496.786224 576.891846,501.302490 
	C576.130005,502.658020 575.216614,503.912994 573.363220,503.318268 
	C571.673340,502.776031 571.203613,501.361542 571.134399,499.772186 
	C570.929382,495.062653 571.517151,490.778351 574.183411,486.464661 
	C578.244080,479.894897 579.355408,472.102600 580.594971,464.586792 
	C583.962097,444.171143 584.750366,423.611603 584.330505,402.905640 
	C583.948914,384.088928 581.507751,365.403412 581.686707,346.555603 
	C581.785217,336.180511 583.210083,326.014740 584.260559,315.763641 
	C584.984131,308.702942 584.787659,301.552979 587.168884,294.715302 
	C587.753052,293.037750 586.309753,291.949829 585.379089,290.826752 
	C582.932434,287.874481 582.177551,284.648376 583.812134,281.099457 
	C586.306641,275.683472 583.662537,272.421783 579.253357,269.845734 
	C578.213379,269.238159 577.385498,268.473785 577.020081,266.865936 
	C582.920654,264.304443 582.259644,258.514099 583.178955,253.445618 
	C589.923950,251.159973 591.123962,249.466370 589.328613,242.129456 
	C587.039856,232.775833 584.438843,223.476364 581.424438,214.334259 
	C580.319763,210.984039 578.219849,207.577057 573.784180,206.102310 
	C573.476440,210.823654 580.615540,213.268921 576.311646,218.143021 
	C574.756470,218.714951 573.613220,217.812759 573.264771,216.498856 
	C571.860046,211.201218 570.377686,206.189926 570.614685,200.272217 
	C570.851074,194.371490 567.671814,187.880264 561.825928,184.054733 
	C559.308655,182.407410 556.949097,180.672928 555.092102,178.204056 
	C549.917603,171.324799 541.946960,167.722961 535.792969,162.124359 
	C529.407410,156.315186 521.530884,154.491714 514.189575,151.424377 
	C503.040558,146.766098 491.278778,145.389374 479.052917,147.314514 
	C472.459076,148.352829 465.645020,148.553894 458.948853,148.922928 
	C453.114960,149.244446 447.696503,151.934540 441.697021,151.060226 
	C437.132050,150.394958 432.607727,149.489532 427.859100,151.914764 
	C425.094482,153.326721 421.500366,151.677429 420.148804,148.145523 
	C419.019104,145.193283 417.430145,145.075409 415.277954,146.862793 
	C413.174072,148.610077 410.839752,148.952759 408.247406,148.405777 
	C405.304871,147.784912 402.827820,147.924332 400.964417,151.034378 
	C399.715607,153.118683 391.345093,151.687836 389.557770,149.240433 
	C387.813477,146.851868 386.297607,144.296463 384.840393,142.058411 
	C379.231567,143.810013 373.897247,145.063278 368.088593,145.369186 
	C362.710724,145.652405 357.772980,145.265320 352.799316,143.472015 
	C351.676361,143.067123 350.534058,143.608368 349.529510,144.326859 
	C348.730164,144.898590 347.380219,145.960037 347.040253,145.719955 
	C343.581299,143.277420 339.329895,146.749680 335.881531,143.991638 
	C333.646790,142.204254 330.576813,142.899414 328.102661,143.114609 
	C323.087799,143.550781 319.199890,139.759201 314.318939,140.214569 
	C301.022675,141.454971 289.082977,146.384857 278.083984,153.696198 
	C266.857758,161.158554 255.560791,168.546387 244.721985,176.545700 
	C239.560883,180.354706 235.231552,185.357834 230.813080,190.088699 
	C225.473206,195.806152 222.000336,202.991760 219.802567,210.160721 
	C217.918106,216.307800 215.567673,222.928223 218.563858,230.187164 
	C220.234314,234.234253 219.073044,239.677414 218.448151,244.393417 
	C217.413177,252.203903 218.285431,259.794434 219.322403,267.520111 
	C220.637970,277.321320 218.686844,287.014648 216.988022,296.678986 
	C215.749634,303.723999 215.079727,310.847076 215.128708,318.031494 
	C215.281982,340.511688 215.970352,363.022614 212.189041,385.325500 
	C211.771439,387.788574 212.535126,390.702393 209.975418,392.547791 
	C209.331421,393.012054 209.494003,393.643311 209.575714,394.336823 
	C211.806213,413.267181 213.912354,432.212769 216.245590,451.130310 
	C217.641113,462.444916 217.635437,474.111023 224.072052,484.290131 
	C225.101364,485.917938 225.463562,488.037323 225.846939,489.985962 
	C226.313095,492.355469 226.413239,494.985443 223.383987,495.659058 
	C220.572968,496.284149 219.299622,494.233582 218.350266,491.866943 
	C214.789246,482.989716 212.982895,473.723328 212.927460,464.228088 
	C212.888153,457.498077 210.470428,451.119202 210.673126,444.409180 
	C210.709915,443.191071 210.370377,442.006836 208.986282,441.671112 
	C201.738953,439.913269 197.597916,433.166138 190.929947,430.434113 
	C189.832855,429.984558 189.023804,428.615845 188.302170,427.525909 
	C187.556183,426.399200 187.094849,425.058136 188.234741,423.857330 
	C189.198181,422.842438 190.335236,423.213501 191.484116,423.589935 
	C194.946243,424.724274 198.154694,426.423859 201.698532,428.714386 
	C202.515671,423.084442 195.738647,418.998260 199.877319,413.718903 
	C202.227570,421.884674 207.031021,428.932983 209.609253,437.019104 
	C206.830856,421.683960 208.083160,406.032379 204.986649,390.396667 
	C205.001617,389.993927 204.982178,390.020111 204.982178,390.020111 
z"/>
<path fill="#000000" opacity="1.000000" stroke="none" 
	d="
M241.424255,638.954224 
	C246.224716,639.447205 244.711716,642.478943 244.183685,644.937500 
	C242.768478,651.527161 238.967072,657.143066 236.436707,663.285156 
	C231.660172,674.879456 230.345413,687.028625 229.171738,699.312378 
	C227.686905,714.852722 230.445908,730.146179 231.316452,745.547668 
	C231.596603,750.504272 231.511627,755.410522 230.605850,761.420593 
	C226.261230,755.897888 225.967346,750.017517 226.064056,744.754028 
	C226.328568,730.356812 220.555145,717.071228 219.300049,702.988159 
	C218.934708,698.888794 216.504044,698.366516 212.799942,700.440247 
	C208.940567,702.600769 206.690903,706.122742 204.936615,709.883240 
	C203.220078,713.562805 201.120010,716.958801 198.351547,719.810608 
	C193.521606,724.785950 192.653687,731.752747 188.998413,737.328735 
	C183.489868,745.731689 177.750473,747.003479 170.152618,740.493286 
	C164.103394,735.310120 159.093430,728.973328 152.309708,724.561462 
	C149.748520,722.895813 149.786423,720.455750 151.707123,718.093140 
	C152.755600,716.803345 153.922165,715.582947 154.792221,714.180359 
	C156.665054,711.161194 156.137924,708.079285 152.605728,707.536621 
	C142.893936,706.044556 140.778122,697.709534 136.893860,691.015137 
	C135.008499,687.765869 137.610794,685.735962 140.048172,684.166504 
	C149.695923,677.953979 160.104752,673.111206 170.117493,667.557678 
	C184.556046,659.549377 200.157822,654.142883 214.969070,646.984375 
	C217.050354,645.978394 219.309372,645.033691 221.570221,644.763062 
	C228.425171,643.942505 234.803802,641.689758 241.424255,638.954224 
M197.709702,682.154968 
	C197.063766,687.366638 200.923080,687.656799 204.371964,687.924805 
	C207.235397,688.147339 209.883560,688.136841 212.023804,690.609070 
	C215.769608,694.936096 217.270096,694.774658 220.785385,690.266418 
	C227.706406,681.390503 230.025803,670.978516 230.833191,660.081238 
	C231.060165,657.017883 229.435440,655.656189 226.503799,656.540344 
	C224.794510,657.055908 223.048569,657.912842 221.695801,659.060303 
	C217.703796,662.446289 213.299850,662.585510 208.562531,661.331970 
	C202.816040,659.811340 201.230377,660.706604 202.192444,666.589294 
	C203.161713,672.515991 202.182724,677.306458 197.709702,682.154968 
z"/>
<path fill="#000000" opacity="1.000000" stroke="none" 
	d="
M504.655182,336.364807 
	C496.854340,333.615173 489.032410,332.822784 481.384644,331.248596 
	C479.411072,330.842438 477.433289,331.375519 475.519989,332.085785 
	C471.902130,333.428802 468.091522,334.546570 464.290833,334.065033 
	C456.922180,333.131317 450.690948,338.348267 443.359039,337.653961 
	C440.296997,329.688385 448.088287,327.971863 451.753418,324.139069 
	C449.273956,321.544098 447.858337,323.319427 446.549469,324.339050 
	C444.320251,326.075592 442.267303,328.037445 440.125122,329.887054 
	C439.211273,330.676086 438.176971,331.396454 437.034515,330.423615 
	C436.162506,329.681091 436.216278,328.542358 436.765930,327.668091 
	C438.515198,324.885925 438.886169,321.804565 439.223328,318.627930 
	C439.570801,315.353912 442.044525,313.189331 444.960083,313.332642 
	C452.911987,313.723328 460.916718,310.922791 468.621002,312.752563 
	C474.752045,314.208618 480.062805,313.556824 485.826202,311.751129 
	C489.944244,310.460938 496.242584,314.911835 498.317657,319.963623 
	C499.154205,322.000122 499.842926,323.608521 502.294983,323.394135 
	C504.042175,322.076599 501.480682,320.530182 502.797760,319.126678 
	C503.128632,319.081879 503.657227,318.848236 504.071136,318.978668 
	C510.226196,320.917480 514.582092,324.318085 514.534363,331.522522 
	C514.518188,333.964111 516.992126,334.489288 518.558960,335.547913 
	C524.551880,339.597046 530.148560,343.960815 532.752563,351.080109 
	C533.254578,352.452576 534.100464,353.767548 533.276489,356.805237 
	C525.799805,346.487335 517.091980,338.949982 504.655182,336.364807 
z"/>
<path fill="#000000" opacity="1.000000" stroke="none" 
	d="
M407.974060,513.947937 
	C408.349426,516.274109 410.078674,517.644592 411.617462,519.164612 
	C412.769836,520.302917 414.550385,521.503418 412.901947,523.278381 
	C411.451904,524.839661 409.908325,523.943970 408.584534,522.650146 
	C408.051788,522.129456 407.334869,521.797241 406.466156,521.223633 
	C406.139801,523.719482 410.297241,525.428955 407.082275,527.565369 
	C404.438995,529.321899 402.247589,527.718079 400.458984,525.885742 
	C397.120544,522.465759 393.484344,520.865173 388.846191,523.154602 
	C388.424225,523.362854 387.735626,523.542175 387.403198,523.344360 
	C382.048126,520.158142 377.669708,525.154907 372.933716,525.028748 
	C367.877319,524.894165 363.438782,524.673096 358.219910,526.200623 
	C353.911743,527.461548 349.080475,528.723572 344.809631,530.239136 
	C341.868622,531.282776 340.834961,531.068054 339.450104,528.956238 
	C334.375763,533.402588 334.375763,533.402588 331.036560,532.038757 
	C320.236694,538.978210 308.762604,543.734924 298.066040,549.266235 
	C295.898773,547.751953 297.757294,546.376160 297.119202,545.062378 
	C295.307831,544.640259 293.410614,544.198120 291.683411,543.795593 
	C290.640381,541.777405 291.899078,540.731201 292.825684,539.607239 
	C293.565491,538.709900 295.077240,537.836731 295.040222,537.006714 
	C294.701385,529.410217 301.771057,529.040161 306.033539,524.967102 
	C306.486206,528.357910 302.776428,528.233093 302.792175,530.497498 
	C303.721741,531.531860 304.601440,530.637817 305.393097,530.293457 
	C307.138245,529.534424 317.439026,527.111938 319.677612,527.220154 
	C320.613037,527.265442 321.280640,526.965271 321.937500,526.460022 
	C324.603119,524.409607 327.216431,522.432312 330.939758,524.115295 
	C331.686005,524.452637 333.220795,524.170715 333.792236,523.587036 
	C337.518250,519.781433 343.435944,520.015503 347.134094,516.141479 
	C348.362915,514.854187 350.074066,513.952881 351.692444,513.124817 
	C358.599213,509.590668 366.700928,509.210846 373.349487,503.848938 
	C374.845673,508.542145 371.445343,510.395508 370.036926,513.549805 
	C374.015839,511.826752 377.471039,510.398560 380.856781,508.821259 
	C381.825073,508.370148 382.958374,507.789886 383.631256,508.519196 
	C387.259064,512.451477 392.643372,510.862396 396.688965,513.083008 
	C397.999451,511.922272 395.942261,510.800232 397.526733,509.279938 
	C400.080994,512.064758 404.007751,512.232544 407.695068,513.902710 
	C408.001007,513.988647 407.974060,513.947937 407.974060,513.947937 
M310.676910,536.761780 
	C306.544281,535.980469 304.785461,538.389893 302.970001,542.539246 
	C306.716827,541.250732 309.130157,539.906372 310.676910,536.761780 
z"/>
<path fill="#000000" opacity="1.000000" stroke="none" 
	d="
M631.001953,338.000977 
	C627.441162,342.130920 626.865234,346.410461 629.065613,351.642456 
	C630.283264,354.537415 629.790283,358.192291 629.888428,361.510010 
	C630.192810,371.797760 631.011658,382.116760 630.521118,392.370544 
	C629.794189,407.564026 624.472473,421.450623 614.588684,433.023438 
	C610.571838,437.726776 606.528381,441.862610 605.821106,448.315704 
	C605.682983,449.576080 604.870178,451.212830 601.888184,451.305542 
	C605.695129,445.199188 603.895447,438.497681 610.236633,432.500244 
	C622.781677,420.635345 626.771057,404.330200 624.476440,387.019135 
	C622.774780,374.181549 618.915588,361.661407 618.717957,348.586884 
	C618.709290,348.015442 618.160706,347.452148 617.929199,347.010315 
	C615.586914,346.366547 614.567200,348.019867 613.678894,349.246063 
	C608.805908,355.972412 604.027100,362.769196 599.329529,369.619659 
	C596.693115,373.464325 597.371948,376.744812 600.610962,380.297119 
	C610.134949,390.742126 613.583008,402.888611 609.527588,416.763245 
	C609.247925,417.719940 608.698853,418.742493 608.832703,419.652374 
	C609.878723,426.763824 606.821106,430.651917 599.806641,431.755615 
	C597.518494,432.115631 596.121948,433.663025 595.081482,435.776031 
	C594.217834,437.529968 592.934143,439.161621 589.379333,439.685944 
	C590.421387,430.778748 593.666504,422.775635 594.233154,414.499939 
	C597.165466,414.449371 597.364746,416.438446 599.006470,417.725128 
	C600.651001,406.208893 599.236267,395.636047 595.034668,385.520294 
	C593.942871,382.891602 593.109802,380.443665 593.937134,377.885803 
	C598.874329,362.621216 607.838745,350.004425 619.994202,339.682983 
	C622.836731,337.269257 626.490906,336.311310 630.677490,337.907166 
	C631.033813,338.047211 631.012085,338.016327 631.001953,338.000977 
z"/>
<path fill="#000000" opacity="1.000000" stroke="none" 
	d="
M289.560974,318.038483 
	C289.068665,313.171875 292.722260,311.966553 295.658997,310.257751 
	C296.928467,309.519073 298.874054,309.482788 299.665497,308.467255 
	C302.164185,305.261200 303.936890,302.023285 308.778564,306.002502 
	C309.918640,306.939514 313.877502,304.540283 316.497650,303.563385 
	C321.852631,301.566895 326.347595,303.873779 330.958893,306.147095 
	C335.574615,308.422516 340.172333,310.975952 345.072571,312.376862 
	C352.671783,314.549316 357.295624,324.847107 352.922516,331.136505 
	C351.783478,332.774689 344.452026,332.891541 341.693329,331.466766 
	C332.396942,326.665497 322.514679,324.048492 312.032501,324.017426 
	C305.730286,323.998749 299.937500,325.780548 294.594269,329.253265 
	C287.351288,333.960693 279.770172,338.154114 273.325867,344.024170 
	C271.445557,345.736938 270.173431,347.290985 269.830261,350.170746 
	C269.177185,355.651489 264.393372,357.967285 260.100006,360.483246 
	C262.662720,352.028290 266.409332,344.494720 273.299866,338.643829 
	C279.979736,332.971802 286.726837,327.184967 289.560974,318.038483 
z"/>
<path fill="#000000" opacity="1.000000" stroke="none" 
	d="
M408.016785,514.007202 
	C407.531708,512.324158 407.030884,510.622437 406.344696,508.290985 
	C410.975525,509.696350 413.668945,513.182312 417.533173,515.292542 
	C418.678406,513.756897 416.133759,512.167847 418.267853,510.126160 
	C424.147369,508.892212 424.274628,518.524170 430.364380,517.960449 
	C430.680389,515.092285 426.359985,515.584351 426.643036,512.474548 
	C435.459778,511.097076 444.071960,509.781342 452.496094,515.238403 
	C457.287720,518.342346 463.145233,519.746887 468.227264,522.468384 
	C477.081757,527.210083 486.442444,530.121460 496.239899,532.138977 
	C499.411102,532.791992 503.553894,534.129089 501.584015,539.555359 
	C500.881989,541.489075 502.578613,543.512146 504.534027,544.234131 
	C506.399475,544.922913 507.025085,546.275330 507.653656,547.816406 
	C509.623352,552.645752 507.652466,564.377380 504.236389,567.357849 
	C503.838165,566.852661 503.097687,566.348938 503.107880,565.860840 
	C503.256897,558.724426 498.435272,553.339661 496.531403,546.940796 
	C495.390839,543.107422 492.861603,541.583008 488.957031,542.236206 
	C488.301361,542.345947 487.617310,542.634583 486.994049,542.536804 
	C480.150940,541.462524 473.246002,540.641418 466.504120,539.108215 
	C461.347504,537.935547 457.129150,534.886536 454.312927,528.381226 
	C454.315460,532.044800 453.839630,533.772156 451.295685,532.496643 
	C447.800018,530.744080 444.006561,529.807800 441.266754,526.339600 
	C439.497925,524.100525 436.001221,523.226318 433.321808,521.763916 
	C427.708344,527.900940 425.273926,527.699890 421.807434,520.942749 
	C419.954559,521.005432 420.614502,523.713257 417.935242,523.838196 
	C415.423218,520.609436 412.305084,517.122742 408.243774,514.158936 
	C407.974060,513.947937 408.001007,513.988647 408.016785,514.007202 
z"/>
<path fill="#000000" opacity="1.000000" stroke="none" 
	d="
M460.132080,557.331177 
	C463.566376,553.578003 466.985352,551.907471 471.710724,554.426270 
	C473.844452,555.563660 476.599976,553.494141 478.916565,554.988586 
	C479.447510,557.086365 477.946869,557.869263 476.626343,558.356934 
	C470.661652,560.559570 466.405121,564.679688 462.322021,569.457336 
	C449.476410,584.488159 432.294250,590.894592 413.172058,593.078796 
	C412.221619,593.187317 411.163513,592.902161 410.247833,593.933960 
	C411.521301,596.024353 414.694153,594.884827 416.259369,597.613220 
	C410.556854,599.699463 404.955139,600.370483 399.237396,599.212097 
	C395.222198,598.398682 391.297363,598.719604 387.359222,599.301025 
	C377.308838,600.784790 367.249390,600.104309 357.244598,599.144043 
	C353.945679,598.827515 350.078979,597.909546 348.740234,593.834167 
	C350.432465,592.324402 351.909576,592.934998 353.331482,593.275208 
	C361.798615,595.300842 370.388062,596.285522 379.076233,595.835083 
	C382.072357,595.679688 386.350098,597.492554 386.897430,591.833008 
	C387.013580,590.632080 389.150024,590.646790 390.429443,590.460571 
	C395.218292,589.763794 400.043304,589.590210 404.874390,589.853516 
	C426.132080,591.011963 443.194031,582.015503 458.102936,567.849060 
	C459.301392,566.710266 460.266296,565.296692 459.813293,562.832703 
	C454.398132,561.343018 448.560730,562.023987 442.892273,561.587341 
	C424.928802,560.203674 406.917267,563.225769 388.997192,561.806030 
	C370.942169,560.375610 353.110870,562.632507 335.209595,563.562012 
	C329.124756,563.877930 323.326294,564.169250 317.554047,562.168091 
	C315.801178,561.560486 313.779968,560.935974 313.872406,558.695251 
	C313.973083,556.256165 316.237976,556.932495 317.749664,556.636902 
	C319.709473,556.253723 321.679718,555.923584 323.638245,555.534302 
	C324.786682,555.306030 326.300323,554.751465 326.925201,555.817200 
	C330.496063,561.907471 336.383118,560.100342 341.314606,559.599976 
	C360.413269,557.661987 379.497437,558.048584 398.632843,558.521545 
	C408.753571,558.771606 418.920258,557.913025 429.040192,557.190796 
	C436.235168,556.677246 443.314880,557.720398 450.433685,558.125671 
	C453.640930,558.308228 456.713501,558.458374 460.132080,557.331177 
z"/>
<path fill="#000000" opacity="1.000000" stroke="none" 
	d="
M497.505554,354.575806 
	C503.707001,352.624908 508.302643,356.321411 513.049377,358.205078 
	C518.248169,360.268127 522.891785,363.748230 527.735779,366.679413 
	C529.857910,367.963593 531.279358,369.848755 530.969727,372.445557 
	C530.661255,375.033691 528.292664,375.995392 526.345093,376.444641 
	C522.821655,377.257416 519.945190,379.089478 516.920654,380.849396 
	C510.097412,384.819580 502.517731,384.791718 494.886597,385.050842 
	C480.755859,385.530762 467.463409,379.680054 453.388641,379.981842 
	C451.796326,380.015991 449.766022,379.804443 449.006775,378.127808 
	C448.070557,376.060455 449.877625,374.752777 451.137756,373.487091 
	C463.800110,360.768860 479.488342,355.378754 497.505554,354.575806 
M475.578247,362.702332 
	C469.538971,364.332611 464.683899,368.030579 458.667053,371.981201 
	C465.968811,378.605804 474.919373,377.698029 482.761566,380.299164 
	C479.215729,375.535309 477.223419,370.584778 477.541534,364.826813 
	C477.590424,363.941650 477.056976,363.269409 475.578247,362.702332 
M517.253174,366.149719 
	C512.288391,363.309570 512.146240,363.359589 511.152618,368.807007 
	C510.637146,371.633179 509.519470,374.251251 507.867950,376.516205 
	C506.322083,378.636353 504.303986,380.412140 501.943085,382.925690 
	C508.096832,381.088745 513.407715,379.337341 517.752380,375.589264 
	C521.434814,372.412415 521.376038,370.314606 517.253174,366.149719 
M499.277924,367.847778 
	C500.174957,364.755707 498.630585,363.245453 495.808472,363.531464 
	C492.457001,363.871155 489.152985,364.562195 485.574463,363.543274 
	C485.480927,367.390442 487.283234,368.832275 490.386261,368.793671 
	C493.180511,368.758911 495.971680,368.479858 499.277924,367.847778 
z"/>
<path fill="#000000" opacity="1.000000" stroke="none" 
	d="
M287.554749,355.209290 
	C302.627930,352.574768 316.781647,353.695770 329.927551,361.363647 
	C335.672333,364.714569 341.359924,368.165649 347.022736,371.653687 
	C348.614136,372.633911 350.092651,374.088593 349.719696,376.094757 
	C349.256805,378.584808 346.905457,377.973328 345.206329,378.070770 
	C327.864777,379.066071 310.602448,381.501160 293.190918,381.161835 
	C283.950867,380.981781 275.710114,377.181396 267.877411,372.796661 
	C265.699127,371.577240 261.200287,372.247498 261.540924,368.382477 
	C261.870178,364.646790 266.034088,365.050903 268.676300,364.017914 
	C275.035645,361.531647 280.549957,357.265503 287.554749,355.209290 
M339.408783,372.120178 
	C331.832245,369.840729 327.330231,361.458557 318.036835,361.391052 
	C318.985138,366.642181 317.419525,371.327026 315.350220,376.568878 
	C325.092224,377.233917 334.147186,370.144958 343.056458,377.203064 
	C343.889130,373.229187 341.565399,373.176208 339.408783,372.120178 
M282.511200,362.350830 
	C280.269775,362.524689 278.412415,363.702332 276.626587,364.858215 
	C272.490265,367.535583 272.478973,370.153046 276.768158,372.684753 
	C280.705750,375.008911 285.005432,376.571014 289.793579,377.236084 
	C285.556183,373.116302 285.641724,367.274475 282.511200,362.350830 
M297.301514,361.987640 
	C294.050201,364.292603 294.712372,366.064606 298.228760,366.870239 
	C300.443756,367.377716 302.831177,367.077545 305.114990,367.355530 
	C307.373260,367.630402 309.424774,367.341003 309.434998,364.705719 
	C309.446045,361.854980 306.919250,362.183868 304.974243,362.092957 
	C302.659454,361.984741 300.341675,361.941376 297.301514,361.987640 
z"/>
<path fill="#000000" opacity="1.000000" stroke="none" 
	d="
M183.443726,435.577271 
	C186.560287,440.037109 188.217422,445.017242 192.932480,447.992950 
	C195.062103,449.336945 195.938721,452.258850 194.258759,455.354340 
	C191.178146,454.259125 190.111191,451.361084 188.711029,449.245178 
	C180.934586,437.493347 172.424576,426.016449 170.327225,411.505981 
	C169.497253,405.764008 168.716919,400.013489 169.452621,394.147552 
	C170.497574,385.816040 169.196594,377.557465 168.274673,369.294464 
	C167.439682,361.810547 167.228928,354.401642 169.934891,347.125183 
	C171.389832,343.212769 173.409454,342.760773 176.710129,344.861633 
	C180.702759,347.402863 184.049835,350.557434 186.678284,354.489258 
	C190.284195,359.883301 193.927872,365.252289 197.504272,370.665771 
	C198.374496,371.983032 199.825623,373.147064 199.012726,375.564117 
	C189.476608,369.591919 187.360168,356.947510 177.487839,351.847198 
	C175.912247,352.413300 175.879395,353.541473 176.134354,354.449127 
	C179.562637,366.653381 176.715729,378.557739 174.282654,390.418365 
	C170.943024,406.698242 175.119049,421.349243 183.443726,435.577271 
z"/>
<path fill="#000000" opacity="1.000000" stroke="none" 
	d="
M195.565262,337.039429 
	C191.014832,338.604340 188.014572,335.654358 184.821808,333.843811 
	C175.049438,328.302094 171.662842,328.698303 163.970108,336.690674 
	C161.493469,339.263794 158.810333,341.638184 155.747787,344.554749 
	C153.198181,336.114166 156.921555,330.295959 161.181778,325.097595 
	C164.952026,320.497101 170.460526,321.375977 175.574493,322.801636 
	C183.449387,324.996948 188.663452,331.710358 195.892715,335.049835 
	C196.099915,335.145569 195.856598,336.216583 195.565262,337.039429 
z"/>
<path fill="#000000" opacity="1.000000" stroke="none" 
	d="
M364.005981,476.700073 
	C374.261902,475.180939 384.201447,478.812225 386.634399,485.290741 
	C377.936798,484.904419 369.821991,477.886719 360.503723,483.235504 
	C364.429901,487.704254 370.221588,484.421936 374.058655,487.456482 
	C366.254303,495.420654 354.556335,494.809082 345.377716,486.500519 
	C349.125824,487.830658 352.028259,489.229980 355.212616,488.598480 
	C357.097351,488.224762 359.543396,487.103241 358.043854,485.122498 
	C353.507904,479.131104 358.857941,478.708344 362.130157,477.020325 
	C362.553284,476.802032 363.102692,476.828552 364.005981,476.700073 
z"/>
<path fill="#000000" opacity="1.000000" stroke="none" 
	d="
M116.687149,845.954590 
	C126.278244,843.708862 135.509232,844.421936 144.743134,845.926880 
	C146.611389,846.231445 148.563736,846.529602 148.629791,848.937561 
	C148.693314,851.253418 146.805832,851.975220 145.009705,852.414429 
	C135.930664,854.634521 126.940102,854.965454 118.232430,850.815979 
	C114.570099,849.070740 114.057831,847.756287 116.687149,845.954590 
z"/>
<path fill="#000000" opacity="1.000000" stroke="none" 
	d="
M205.009201,389.979126 
	C202.265167,397.039948 199.622360,404.160828 196.707123,411.168365 
	C195.578110,413.882233 194.886658,418.608765 190.958466,417.226776 
	C187.211777,415.908600 188.288773,411.272217 189.569794,408.423462 
	C193.841507,398.924011 197.499588,389.222931 200.411041,378.725555 
	C204.318497,381.636169 203.831787,385.766968 204.915039,389.638733 
	C204.982178,390.020111 205.001617,389.993927 205.009201,389.979126 
z"/>
<path fill="#000000" opacity="1.000000" stroke="none" 
	d="
M701.564331,755.266296 
	C700.208191,753.388123 701.333923,752.601440 702.605286,752.013367 
	C707.663696,749.673279 710.913879,745.645386 713.609253,740.907043 
	C716.412170,735.979736 719.455994,736.037231 722.484741,740.788086 
	C726.554749,747.172546 725.460693,750.918762 718.338013,753.190552 
	C713.028259,754.884094 707.659302,757.060120 701.564331,755.266296 
z"/>
<path fill="#000000" opacity="1.000000" stroke="none" 
	d="
M255.905212,332.834167 
	C251.818741,334.572449 249.591568,332.906921 250.251221,329.315460 
	C251.233643,323.966614 252.820892,318.584595 257.578033,314.769501 
	C260.293091,317.750549 255.986359,319.529083 257.323242,322.178009 
	C262.219788,321.630829 264.702393,318.767059 265.757141,314.046936 
	C266.574402,310.389526 268.228455,307.257935 273.509583,307.133026 
	C272.467194,313.606445 269.452515,318.575775 265.937927,323.308655 
	C265.373810,324.068329 263.801331,324.803070 263.913025,325.232758 
	C265.756989,332.326294 259.877838,331.331970 255.905212,332.834167 
z"/>
<path fill="#000000" opacity="1.000000" stroke="none" 
	d="
M458.403687,472.393127 
	C458.331665,484.609497 454.088287,490.990417 445.109344,492.829803 
	C439.716797,493.934479 435.218536,492.657440 431.407623,488.833832 
	C432.964264,486.572662 434.904541,487.728088 436.638489,488.332275 
	C451.362457,493.462769 458.153076,481.578583 454.764313,470.507782 
	C452.968750,464.641785 450.780609,458.896942 448.863586,453.066498 
	C448.315460,451.399414 447.341827,449.640747 449.290100,447.078827 
	C455.666321,454.419067 457.564117,462.982971 458.403687,472.393127 
z"/>
<path fill="#000000" opacity="1.000000" stroke="none" 
	d="
M412.390472,483.242401 
	C419.701019,477.995972 427.074982,474.779419 435.801422,478.635315 
	C438.039886,479.624390 440.395477,480.440948 441.685974,483.635712 
	C435.727692,485.938812 430.488159,480.632751 424.992889,482.584320 
	C419.781189,484.435272 413.884827,484.480164 409.317139,489.697906 
	C408.692993,485.934631 410.773865,484.891846 412.390472,483.242401 
z"/>
<path fill="#000000" opacity="1.000000" stroke="none" 
	d="
M168.033020,431.966339 
	C164.839294,429.433380 164.021118,425.520386 162.593323,422.064575 
	C159.561813,414.727295 155.429184,407.851166 153.327591,400.131927 
	C152.941788,398.714905 152.469910,396.937225 154.147568,396.130524 
	C155.960297,395.258850 157.063049,396.872314 157.496323,398.208618 
	C161.052795,409.176880 166.048782,419.690521 168.000000,431.579987 
	C168.007614,431.989807 168.033020,431.966339 168.033020,431.966339 
z"/>
<path fill="#000000" opacity="1.000000" stroke="none" 
	d="
M549.011292,539.117432 
	C549.552002,531.683105 552.389587,525.857544 558.845642,522.090881 
	C552.179688,529.750977 555.411377,541.252686 548.555481,549.667053 
	C546.508240,545.403137 550.606689,542.681335 549.011292,539.117432 
z"/>
<path fill="#000000" opacity="1.000000" stroke="none" 
	d="
M523.379150,315.773651 
	C522.584595,313.844696 520.555664,312.762482 521.437866,310.604309 
	C527.457153,311.223602 532.819336,323.995392 529.565247,332.234070 
	C527.423889,326.234589 524.482849,321.614960 523.379150,315.773651 
z"/>
<path fill="#000000" opacity="1.000000" stroke="none" 
	d="
M498.928589,619.827026 
	C497.975891,622.462341 496.273926,623.364136 494.128693,622.278687 
	C492.131561,621.268127 491.680237,619.286316 492.130127,617.112305 
	C493.133026,612.266357 496.415894,608.695740 499.359406,604.660889 
	C499.518921,609.644226 495.809052,614.545593 498.928589,619.827026 
z"/>
<path fill="#000000" opacity="1.000000" stroke="none" 
	d="
M477.803345,836.763428 
	C476.258179,838.032532 474.841339,839.521240 473.255310,837.939209 
	C471.715698,836.403381 472.942474,834.736450 474.096832,833.598389 
	C476.836517,830.897827 478.471680,826.923340 483.019318,825.548523 
	C483.709137,830.575562 480.363281,833.318237 477.803345,836.763428 
z"/>
<path fill="#000000" opacity="1.000000" stroke="none" 
	d="
M195.079010,468.965179 
	C194.959045,470.811737 195.251404,472.409485 193.437561,473.478210 
	C190.070923,472.324554 189.005814,469.243591 187.187683,466.043762 
	C190.971939,464.758148 194.023285,463.526093 195.079010,468.965179 
z"/>
<path fill="#000000" opacity="1.000000" stroke="none" 
	d="
M604.672546,464.640045 
	C605.306641,463.453278 605.715393,462.546356 606.255432,461.725861 
	C606.830750,460.851807 607.663025,460.210663 608.735107,460.823822 
	C609.950745,461.519165 610.134094,462.762421 609.445312,463.814758 
	C607.139526,467.337402 604.916077,471.005768 599.979675,472.665253 
	C600.224854,468.923004 603.194702,467.404968 604.672546,464.640045 
z"/>
<path fill="#000000" opacity="1.000000" stroke="none" 
	d="
M528.327026,356.733002 
	C530.684570,359.364258 533.148499,361.582123 532.163757,365.794647 
	C529.539490,362.604797 526.915161,359.414948 524.271667,356.201721 
	C526.163147,354.500732 527.033875,355.886230 528.327026,356.733002 
z"/>
<path fill="#000000" opacity="1.000000" stroke="none" 
	d="
M246.705948,767.047180 
	C244.914841,763.999084 243.927841,760.940125 243.220840,757.420715 
	C247.221771,760.520203 248.293671,763.574158 246.705948,767.047180 
z"/>
<path fill="#000000" opacity="1.000000" stroke="none" 
	d="
M167.993515,431.998779 
	C170.516235,435.481567 172.617111,439.156281 173.814758,444.710052 
	C169.976929,440.681976 167.742386,437.343170 168.009506,432.373840 
	C168.033020,431.966339 168.007614,431.989807 167.993515,431.998779 
z"/>
<path fill="#000000" opacity="1.000000" stroke="none" 
	d="
M491.485413,623.183289 
	C493.176331,625.374573 493.777802,627.470154 492.486816,630.064453 
	C489.401367,628.897522 489.301758,626.018616 488.871185,623.666321 
	C488.651733,622.467468 490.237305,622.708191 491.485413,623.183289 
z"/>
<path fill="#000000" opacity="1.000000" stroke="none" 
	d="
M737.169800,711.162842 
	C739.789429,710.358398 742.119263,710.681335 744.539185,712.960571 
	C741.288818,714.137146 739.117615,713.226074 737.169800,711.162842 
z"/>
<path fill="#000000" opacity="1.000000" stroke="none" 
	d="
M557.804565,780.859741 
	C568.080017,770.802673 576.705383,759.596985 587.450500,750.012451 
	C590.853210,753.857117 590.762634,757.648376 590.055969,761.375549 
	C587.936035,772.556152 583.546936,782.863953 578.513367,793.067505 
	C573.160522,803.918396 568.913452,815.318298 564.280151,826.518372 
	C563.071472,829.440063 562.242615,833.722656 558.800354,833.355591 
	C554.632446,832.911133 549.604675,832.269470 547.282654,827.558044 
	C545.411560,823.761597 544.131042,819.571533 545.359558,815.459167 
	C547.543884,808.147461 547.456482,800.383301 550.699341,793.220032 
	C552.649902,788.911316 555.186462,785.103943 557.804565,780.859741 
z"/>
</svg>